<?xml version="1.0" encoding="iso-8859-1"?>
<!-- Generator: Adobe Illustrator 19.0.0, SVG Export Plug-In . SVG Version: 6.00 Build 0)  -->
<svg version="1.1" id="Layer_1" xmlns="http://www.w3.org/2000/svg" xmlns:xlink="http://www.w3.org/1999/xlink" x="0px" y="0px"
	 viewBox="0 0 512 512" style="enable-background:new 0 0 512 512;" xml:space="preserve">
<polygon style="fill:#FFD652;" points="421.366,504.049 387.445,482.848 353.523,504.049 319.603,482.848 285.681,504.049 
	256,482.848 226.319,504.049 192.398,482.848 158.476,504.049 124.555,482.848 90.634,504.049 90.634,253.879 90.634,7.95 
	421.366,7.95 421.366,253.879 "/>
<polygon style="fill:#E5E5E5;" points="421.366,253.879 421.366,7.95 90.634,7.95 90.634,253.879 90.634,254.409 421.366,254.409 
	"/>
<polygon style="fill:#FFD652;" points="90.634,254.409 90.634,504.049 124.555,482.848 158.476,504.049 192.398,482.848 
	226.319,504.049 256,482.848 285.681,504.049 319.603,482.848 353.523,504.049 387.445,482.848 421.366,504.049 421.366,254.409 "/>
<polygon style="fill:#FB9D46;" points="124.555,254.409 90.634,254.409 90.634,504.049 124.555,482.848 "/>
<polygon style="fill:#CCCCCC;" points="124.555,7.95 90.634,7.95 90.634,253.879 90.634,254.409 124.555,254.409 124.555,253.879 
	"/>
<path style="fill:#B2B2B2;" d="M192.678,151.626l-43.022-28.681c-13.09-8.726-6.913-29.131,8.821-29.131h52.586
	c7.04,0,13.242-4.629,15.243-11.378l14.449-48.707c4.501-15.171,25.987-15.171,30.488,0l14.449,48.707
	c2.002,6.749,8.204,11.378,15.243,11.378h52.586c15.469,0,21.829,19.848,9.242,28.839l-40.932,29.237
	c-5.515,3.939-7.927,10.943-6.007,17.443l14.874,50.361c4.385,14.85-12.882,26.571-25.064,17.014l-39.807-31.23
	c-5.766-4.523-13.876-4.52-19.638,0.007l-39.729,31.216c-12.516,9.834-30.116-2.785-24.818-17.795l17.209-48.759
	C201.273,163.288,198.731,155.66,192.678,151.626z"/>
<polygon style="fill:#FF7452;" points="256,38.252 277.201,109.714 353.523,109.714 294.161,152.116 315.451,224.198 256,177.557 
	196.638,224.198 222.079,152.116 158.476,109.714 234.799,109.714 "/>
<polygon style="fill:#E24642;" points="256,38.252 234.799,109.714 158.476,109.714 222.079,152.116 196.638,224.198 
	234.819,194.199 272.249,93.022 "/>
<path d="M421.366,0H90.634c-4.391,0-7.95,3.56-7.95,7.95v53.002c0,4.391,3.56,7.95,7.95,7.95c4.391,0,7.95-3.56,7.95-7.95V15.901
	h314.832v230.029h-7.95c-4.391,0-7.95,3.56-7.95,7.95c0,4.391,3.56,7.95,7.95,7.95h7.95v227.875l-21.757-13.598
	c-2.579-1.612-5.849-1.612-8.427,0l-29.708,18.568l-29.707-18.568c-2.578-1.611-5.849-1.612-8.427,0l-29.413,18.383l-25.355-18.111
	c-2.764-1.974-6.478-1.974-9.242,0l-25.354,18.111l-29.413-18.383c-2.579-1.612-5.849-1.612-8.427,0l-29.709,18.568l-29.708-18.568
	c-2.579-1.612-5.849-1.612-8.427,0l-21.757,13.598V261.83h7.95c4.391,0,7.95-3.56,7.95-7.95c0-4.391-3.56-7.95-7.95-7.95h-7.95
	V96.994c0-4.391-3.56-7.95-7.95-7.95c-4.391,0-7.95,3.56-7.95,7.95v407.055c0,2.891,1.568,5.552,4.096,6.954
	c2.528,1.4,5.617,1.32,8.068-0.212l29.708-18.568l29.708,18.568c2.579,1.612,5.849,1.612,8.427,0l29.708-18.568l29.708,18.568
	c2.729,1.705,6.216,1.597,8.834-0.272l25.06-17.9l25.06,17.9c1.379,0.985,2.999,1.481,4.622,1.481c1.459,0,2.921-0.401,4.214-1.208
	l29.708-18.568l29.707,18.568c2.579,1.612,5.85,1.612,8.427,0l29.708-18.568l29.708,18.568c2.45,1.532,5.539,1.612,8.068,0.212
	c2.528-1.401,4.096-4.063,4.096-6.954V7.95C429.316,3.56,425.757,0,421.366,0z"/>
<path d="M247.344,253.879c0-4.391-3.56-7.95-7.95-7.95h-33.215c-4.391,0-7.95,3.56-7.95,7.95c0,4.391,3.56,7.95,7.95,7.95h33.214
	C243.784,261.83,247.344,258.27,247.344,253.879z"/>
<path d="M372.251,245.929h-33.214c-4.391,0-7.95,3.56-7.95,7.95c0,4.391,3.56,7.95,7.95,7.95h33.214c4.391,0,7.95-3.56,7.95-7.95
	C380.201,249.489,376.642,245.929,372.251,245.929z"/>
<path d="M313.772,253.879c0-4.391-3.56-7.95-7.95-7.95h-33.214c-4.391,0-7.95,3.56-7.95,7.95c0,4.391,3.56,7.95,7.95,7.95h33.214
	C310.212,261.83,313.772,258.27,313.772,253.879z"/>
<path d="M131.799,253.879c0,4.391,3.56,7.95,7.95,7.95h33.214c4.391,0,7.95-3.56,7.95-7.95c0-4.391-3.56-7.95-7.95-7.95H139.75
	C135.359,245.929,131.799,249.489,131.799,253.879z"/>
<path d="M353.523,101.764h-70.389L263.622,35.99c-1.002-3.374-4.102-5.689-7.622-5.689c-3.519,0-6.621,2.315-7.622,5.689
	l-19.513,65.773h-70.389c-3.503,0-6.593,2.294-7.609,5.647c-1.016,3.353,0.284,6.976,3.199,8.919l58.457,38.972l-23.383,66.251
	c-1.177,3.335-0.01,7.046,2.864,9.107c2.874,2.06,6.763,1.975,9.545-0.21l54.454-42.785l54.54,42.788
	c5.946,4.664,14.673-1.26,12.532-8.507l-19.686-66.652l54.755-39.111c2.812-2.009,4.005-5.604,2.95-8.896
	C360.041,103.996,356.98,101.764,353.523,101.764z M289.541,145.646c-2.758,1.97-3.964,5.471-3.003,8.722l14.24,48.213
	l-39.869-31.279c-1.441-1.13-3.174-1.695-4.907-1.695c-1.735,0-3.471,0.566-4.912,1.699l-37.847,29.736l16.334-46.28
	c1.211-3.429-0.06-7.243-3.087-9.261l-41.755-27.838h50.065c3.519,0,6.621-2.315,7.622-5.689L256,66.204l13.579,45.771
	c1.002,3.374,4.102,5.689,7.622,5.689h51.515L289.541,145.646z"/>
<path d="M285.681,333.912c4.391,0,7.95-3.56,7.95-7.95s-3.56-7.95-7.95-7.95H263.95v-9.01c0-4.391-3.56-7.95-7.95-7.95
	c-4.391,0-7.95,3.56-7.95,7.95v9.01h-6.89c-10.228,0-18.551,8.322-18.551,18.551v16.961c0,10.228,8.322,18.551,18.551,18.551h6.89
	v22.261h-21.731c-4.391,0-7.95,3.56-7.95,7.95c0,4.391,3.56,7.95,7.95,7.95h21.731v9.01c0,4.391,3.56,7.95,7.95,7.95
	c4.391,0,7.95-3.56,7.95-7.95v-9.01h6.89c10.228,0,18.551-8.322,18.551-18.551v-16.961c0-10.228-8.322-18.551-18.551-18.551h-6.89
	v-22.261H285.681z M270.84,372.074c1.461,0,2.65,1.189,2.65,2.65v16.961c0,1.461-1.189,2.65-2.65,2.65h-6.89v-22.261H270.84z
	 M248.05,356.173h-6.89c-1.461,0-2.65-1.189-2.65-2.65v-16.961c0-1.461,1.189-2.65,2.65-2.65h6.89V356.173z"/>
<path d="M391.685,333.912c4.391,0,7.95-3.56,7.95-7.95s-3.56-7.95-7.95-7.95h-21.731v-9.01c0-4.391-3.56-7.95-7.95-7.95
	s-7.95,3.56-7.95,7.95v9.01h-6.89c-10.228,0-18.551,8.322-18.551,18.551v16.961c0,10.228,8.322,18.551,18.551,18.551h6.89v22.261
	h-21.731c-4.391,0-7.95,3.56-7.95,7.95c0,4.391,3.56,7.95,7.95,7.95h21.731v9.01c0,4.391,3.56,7.95,7.95,7.95s7.95-3.56,7.95-7.95
	v-9.01h6.89c10.228,0,18.551-8.322,18.551-18.551v-16.961c0-10.228-8.322-18.551-18.551-18.551h-6.89v-22.261H391.685z
	 M376.844,372.074c1.461,0,2.65,1.189,2.65,2.65v16.961c0,1.461-1.189,2.65-2.65,2.65h-6.89v-22.261H376.844z M354.053,356.173
	h-6.89c-1.461,0-2.65-1.189-2.65-2.65v-16.961c0-1.461,1.189-2.65,2.65-2.65h6.89V356.173z"/>
<path d="M120.315,394.335c-4.391,0-7.95,3.56-7.95,7.95c0,4.391,3.56,7.95,7.95,7.95h21.731v9.01c0,4.391,3.56,7.95,7.95,7.95
	c4.391,0,7.95-3.56,7.95-7.95v-9.01h6.89c10.228,0,18.551-8.322,18.551-18.551v-16.961c0-10.228-8.322-18.551-18.551-18.551h-6.89
	v-22.261h21.731c4.391,0,7.95-3.56,7.95-7.95s-3.56-7.95-7.95-7.95h-21.731v-9.01c0-4.391-3.56-7.95-7.95-7.95
	c-4.391,0-7.95,3.56-7.95,7.95v9.01h-6.89c-10.228,0-18.551,8.322-18.551,18.551v16.961c0,10.228,8.322,18.551,18.551,18.551h6.89
	v22.261H120.315z M135.155,356.173c-1.461,0-2.65-1.189-2.65-2.65v-16.961c0-1.461,1.189-2.65,2.65-2.65h6.89v22.261H135.155z
	 M157.946,372.074h6.89c1.461,0,2.65,1.189,2.65,2.65v16.961c0,1.461-1.189,2.65-2.65,2.65h-6.89V372.074z"/>
<g>
</g>
<g>
</g>
<g>
</g>
<g>
</g>
<g>
</g>
<g>
</g>
<g>
</g>
<g>
</g>
<g>
</g>
<g>
</g>
<g>
</g>
<g>
</g>
<g>
</g>
<g>
</g>
<g>
</g>
</svg>
